<svg xmlns="http://www.w3.org/2000/svg" xmlns:xlink="http://www.w3.org/1999/xlink" width="500" zoomAndPan="magnify" viewBox="0 0 375 374.999991" height="500" preserveAspectRatio="xMidYMid meet" version="1.0"><defs><g/><clipPath id="974581085d"><path d="M 156.359375 124.710938 L 214.109375 124.710938 L 214.109375 188.460938 L 156.359375 188.460938 Z M 156.359375 124.710938 " clip-rule="nonzero"/></clipPath></defs><rect x="-37.5" width="450" fill="#ffffff" y="-37.499999" height="449.999989" fill-opacity="1"/><rect x="-37.5" width="450" fill="#000000" y="-37.499999" height="449.999989" fill-opacity="1"/><g clip-path="url(#974581085d)"><path fill="#ffffff" d="M 189.75 124.710938 L 189.75 136.289062 L 163.859375 148.875 L 163.859375 161.988281 L 156.375 165.621094 L 156.375 188.671875 L 214.066406 188.671875 L 214.066406 136.53125 Z M 166.046875 150.246094 L 189.75 138.730469 L 189.75 166.617188 L 180.742188 162.242188 L 180.742188 153.789062 L 166.046875 160.914062 Z M 158.5625 186.484375 L 158.5625 166.988281 L 163.859375 164.417969 L 163.859375 186.484375 Z M 166.046875 186.484375 L 166.046875 163.34375 L 178.554688 157.265625 L 178.554688 186.484375 Z M 180.757812 186.484375 L 180.757812 164.660156 L 189.761719 169.035156 L 189.761719 186.484375 Z M 191.9375 186.484375 L 191.9375 170.097656 L 204.511719 176.210938 L 204.511719 186.484375 Z M 211.878906 186.484375 L 206.699219 186.484375 L 206.699219 174.84375 L 191.9375 167.667969 L 191.9375 128.203125 L 211.878906 137.898438 Z M 211.878906 186.484375 " fill-opacity="1" fill-rule="nonzero"/></g><g fill="#ffffff" fill-opacity="1"><g transform="translate(114.118815, 223.95328)"><g><path d="M 3.84375 -8.34375 L 3.84375 0 L 1.6875 0 L 1.6875 -18 L 9.5 -18 L 9.5 -16.140625 L 3.84375 -16.140625 L 3.84375 -10.203125 L 8.59375 -10.203125 L 8.59375 -8.34375 Z M 3.84375 -8.34375 "/></g></g></g><g fill="#ffffff" fill-opacity="1"><g transform="translate(124.651246, 223.95328)"><g><path d="M 9.5 -1.890625 L 9.5 0 L 1.6875 0 L 1.6875 -18 L 9.5 -18 L 9.5 -16.140625 L 3.84375 -16.140625 L 3.84375 -10.203125 L 8.59375 -10.203125 L 8.59375 -8.34375 L 3.84375 -8.34375 L 3.84375 -1.890625 Z M 9.5 -1.890625 "/></g></g></g><g fill="#ffffff" fill-opacity="1"><g transform="translate(135.409904, 223.95328)"><g><path d="M 1.6875 -18 L 3.84375 -18 L 3.84375 -1.890625 L 9.5 -1.890625 L 9.5 0 L 1.6875 0 Z M 1.6875 -18 "/></g></g></g><g fill="#ffffff" fill-opacity="1"><g transform="translate(145.515001, 223.95328)"><g><path d="M 1.6875 -18 L 3.84375 -18 L 3.84375 0 L 1.6875 0 Z M 1.6875 -18 "/></g></g></g><g fill="#ffffff" fill-opacity="1"><g transform="translate(151.321721, 223.95328)"><g><path d="M 8.71875 -11.46875 L 8.71875 -13.546875 C 8.71875 -13.960938 8.632812 -14.367188 8.46875 -14.765625 C 8.300781 -15.160156 8.035156 -15.488281 7.671875 -15.75 C 7.316406 -16.007812 6.847656 -16.140625 6.265625 -16.140625 L 3.84375 -16.140625 L 3.84375 -8.875 L 6.265625 -8.875 C 6.847656 -8.875 7.316406 -9.003906 7.671875 -9.265625 C 8.035156 -9.523438 8.300781 -9.851562 8.46875 -10.25 C 8.632812 -10.65625 8.71875 -11.0625 8.71875 -11.46875 Z M 10.890625 -13.546875 L 10.890625 -11.46875 C 10.890625 -10.039062 10.46875 -8.945312 9.625 -8.1875 C 8.789062 -7.425781 7.671875 -7.046875 6.265625 -7.046875 L 3.84375 -7.046875 L 3.84375 0 L 1.6875 0 L 1.6875 -18 L 6.265625 -18 C 7.671875 -18 8.789062 -17.617188 9.625 -16.859375 C 10.46875 -16.097656 10.890625 -14.992188 10.890625 -13.546875 Z M 10.890625 -13.546875 "/></g></g></g><g fill="#ffffff" fill-opacity="1"><g transform="translate(163.312082, 223.95328)"><g><path d="M 8.71875 -11.46875 L 8.71875 -13.546875 C 8.71875 -13.960938 8.632812 -14.367188 8.46875 -14.765625 C 8.300781 -15.160156 8.035156 -15.488281 7.671875 -15.75 C 7.316406 -16.007812 6.847656 -16.140625 6.265625 -16.140625 L 3.84375 -16.140625 L 3.84375 -8.875 L 6.265625 -8.875 C 6.847656 -8.875 7.316406 -9.003906 7.671875 -9.265625 C 8.035156 -9.523438 8.300781 -9.851562 8.46875 -10.25 C 8.632812 -10.65625 8.71875 -11.0625 8.71875 -11.46875 Z M 10.890625 -13.546875 L 10.890625 -11.46875 C 10.890625 -10.039062 10.46875 -8.945312 9.625 -8.1875 C 8.789062 -7.425781 7.671875 -7.046875 6.265625 -7.046875 L 3.84375 -7.046875 L 3.84375 0 L 1.6875 0 L 1.6875 -18 L 6.265625 -18 C 7.671875 -18 8.789062 -17.617188 9.625 -16.859375 C 10.46875 -16.097656 10.890625 -14.992188 10.890625 -13.546875 Z M 10.890625 -13.546875 "/></g></g></g><g fill="#ffffff" fill-opacity="1"><g transform="translate(175.302445, 223.95328)"><g><path d="M 9.5 -1.890625 L 9.5 0 L 1.6875 0 L 1.6875 -18 L 9.5 -18 L 9.5 -16.140625 L 3.84375 -16.140625 L 3.84375 -10.203125 L 8.59375 -10.203125 L 8.59375 -8.34375 L 3.84375 -8.34375 L 3.84375 -1.890625 Z M 9.5 -1.890625 "/></g></g></g><g fill="#ffffff" fill-opacity="1"><g transform="translate(186.061104, 223.95328)"><g/></g></g><g fill="#ffffff" fill-opacity="1"><g transform="translate(191.063442, 223.95328)"><g><path d="M 0.296875 -0.453125 L 4.625 -18 L 6.9375 -18 L 11.265625 -0.453125 L 11.265625 0 L 9.234375 0 L 8.203125 -4.296875 L 3.3125 -4.296875 L 2.3125 0 L 0.296875 0 Z M 5.75 -14.3125 L 3.84375 -6.265625 L 7.671875 -6.265625 Z M 5.75 -14.3125 "/></g></g></g><g fill="#ffffff" fill-opacity="1"><g transform="translate(202.953257, 223.95328)"><g><path d="M 1.6875 -18 L 3.84375 -18 L 3.84375 -1.890625 L 9.5 -1.890625 L 9.5 0 L 1.6875 0 Z M 1.6875 -18 "/></g></g></g><g fill="#ffffff" fill-opacity="1"><g transform="translate(213.05835, 223.95328)"><g><path d="M 5.75 -16.359375 C 5.40625 -16.359375 5.050781 -16.304688 4.6875 -16.203125 C 4.320312 -16.097656 4.019531 -15.914062 3.78125 -15.65625 C 3.539062 -15.40625 3.421875 -15.0625 3.421875 -14.625 L 3.421875 -3.375 C 3.421875 -2.945312 3.539062 -2.601562 3.78125 -2.34375 C 4.019531 -2.09375 4.320312 -1.90625 4.6875 -1.78125 C 5.050781 -1.664062 5.40625 -1.609375 5.75 -1.609375 C 6.101562 -1.609375 6.457031 -1.664062 6.8125 -1.78125 C 7.164062 -1.90625 7.457031 -2.09375 7.6875 -2.34375 C 7.925781 -2.601562 8.046875 -2.945312 8.046875 -3.375 L 8.046875 -14.625 C 8.046875 -15.050781 7.925781 -15.390625 7.6875 -15.640625 C 7.457031 -15.890625 7.164062 -16.070312 6.8125 -16.1875 C 6.457031 -16.300781 6.101562 -16.359375 5.75 -16.359375 Z M 5.75 0.28125 C 5.0625 0.28125 4.367188 0.160156 3.671875 -0.078125 C 2.984375 -0.328125 2.40625 -0.722656 1.9375 -1.265625 C 1.476562 -1.816406 1.25 -2.539062 1.25 -3.4375 L 1.25 -14.5625 C 1.25 -15.476562 1.476562 -16.207031 1.9375 -16.75 C 2.40625 -17.300781 2.984375 -17.695312 3.671875 -17.9375 C 4.367188 -18.175781 5.0625 -18.296875 5.75 -18.296875 C 6.4375 -18.296875 7.117188 -18.175781 7.796875 -17.9375 C 8.484375 -17.695312 9.054688 -17.300781 9.515625 -16.75 C 9.972656 -16.207031 10.203125 -15.476562 10.203125 -14.5625 L 10.203125 -3.4375 C 10.203125 -2.539062 9.972656 -1.816406 9.515625 -1.265625 C 9.054688 -0.722656 8.484375 -0.328125 7.796875 -0.078125 C 7.117188 0.160156 6.4375 0.28125 5.75 0.28125 Z M 5.75 0.28125 "/></g></g></g><g fill="#ffffff" fill-opacity="1"><g transform="translate(224.923023, 223.95328)"><g><path d="M 9.078125 0 L 4.046875 -12.4375 L 3.890625 0 L 1.734375 0 L 1.734375 -18 L 3.890625 -18 L 8.921875 -5.5625 L 9.046875 -18 L 11.1875 -18 L 11.1875 0 Z M 9.078125 0 "/></g></g></g><g fill="#ffffff" fill-opacity="1"><g transform="translate(238.220495, 223.95328)"><g><path d="M 9.609375 -11.84375 L 7.46875 -11.84375 L 7.46875 -14.6875 C 7.46875 -15.113281 7.351562 -15.453125 7.125 -15.703125 C 6.894531 -15.960938 6.613281 -16.148438 6.28125 -16.265625 C 5.945312 -16.378906 5.601562 -16.4375 5.25 -16.4375 C 4.914062 -16.4375 4.582031 -16.378906 4.25 -16.265625 C 3.914062 -16.160156 3.632812 -15.976562 3.40625 -15.71875 C 3.175781 -15.457031 3.0625 -15.113281 3.0625 -14.6875 L 3.0625 -13.28125 C 3.0625 -12.6875 3.113281 -12.203125 3.21875 -11.828125 C 3.320312 -11.460938 3.5 -11.160156 3.75 -10.921875 C 4.007812 -10.679688 4.394531 -10.441406 4.90625 -10.203125 C 5.90625 -9.816406 6.765625 -9.410156 7.484375 -8.984375 C 8.210938 -8.554688 8.765625 -8 9.140625 -7.3125 C 9.515625 -6.625 9.703125 -5.671875 9.703125 -4.453125 L 9.703125 -3.4375 C 9.703125 -2.539062 9.472656 -1.816406 9.015625 -1.265625 C 8.566406 -0.722656 8.003906 -0.328125 7.328125 -0.078125 C 6.648438 0.160156 5.957031 0.28125 5.25 0.28125 C 4.5625 0.28125 3.875 0.160156 3.1875 -0.078125 C 2.5 -0.328125 1.925781 -0.722656 1.46875 -1.265625 C 1.019531 -1.816406 0.796875 -2.539062 0.796875 -3.4375 L 0.796875 -6.140625 L 2.921875 -6.140625 L 2.921875 -3.296875 C 2.921875 -2.910156 3.039062 -2.59375 3.28125 -2.34375 C 3.519531 -2.101562 3.816406 -1.929688 4.171875 -1.828125 C 4.535156 -1.734375 4.894531 -1.6875 5.25 -1.6875 C 5.601562 -1.6875 5.957031 -1.734375 6.3125 -1.828125 C 6.675781 -1.929688 6.976562 -2.101562 7.21875 -2.34375 C 7.46875 -2.59375 7.59375 -2.910156 7.59375 -3.296875 L 7.59375 -4.71875 C 7.59375 -5.3125 7.539062 -5.78125 7.4375 -6.125 C 7.34375 -6.476562 7.148438 -6.773438 6.859375 -7.015625 C 6.578125 -7.265625 6.148438 -7.53125 5.578125 -7.8125 C 4.578125 -8.21875 3.722656 -8.628906 3.015625 -9.046875 C 2.316406 -9.460938 1.785156 -10.015625 1.421875 -10.703125 C 1.054688 -11.390625 0.875 -12.335938 0.875 -13.546875 L 0.875 -14.5625 C 0.875 -15.476562 1.097656 -16.207031 1.546875 -16.75 C 2.003906 -17.300781 2.566406 -17.695312 3.234375 -17.9375 C 3.910156 -18.175781 4.582031 -18.296875 5.25 -18.296875 C 5.925781 -18.296875 6.597656 -18.175781 7.265625 -17.9375 C 7.929688 -17.695312 8.488281 -17.300781 8.9375 -16.75 C 9.382812 -16.207031 9.609375 -15.476562 9.609375 -14.5625 Z M 9.609375 -11.84375 "/></g></g></g><g fill="#ffffff" fill-opacity="1"><g transform="translate(249.331071, 223.95328)"><g><path d="M 5.75 -16.359375 C 5.40625 -16.359375 5.050781 -16.304688 4.6875 -16.203125 C 4.320312 -16.097656 4.019531 -15.914062 3.78125 -15.65625 C 3.539062 -15.40625 3.421875 -15.0625 3.421875 -14.625 L 3.421875 -3.375 C 3.421875 -2.945312 3.539062 -2.601562 3.78125 -2.34375 C 4.019531 -2.09375 4.320312 -1.90625 4.6875 -1.78125 C 5.050781 -1.664062 5.40625 -1.609375 5.75 -1.609375 C 6.101562 -1.609375 6.457031 -1.664062 6.8125 -1.78125 C 7.164062 -1.90625 7.457031 -2.09375 7.6875 -2.34375 C 7.925781 -2.601562 8.046875 -2.945312 8.046875 -3.375 L 8.046875 -14.625 C 8.046875 -15.050781 7.925781 -15.390625 7.6875 -15.640625 C 7.457031 -15.890625 7.164062 -16.070312 6.8125 -16.1875 C 6.457031 -16.300781 6.101562 -16.359375 5.75 -16.359375 Z M 5.75 0.28125 C 5.0625 0.28125 4.367188 0.160156 3.671875 -0.078125 C 2.984375 -0.328125 2.40625 -0.722656 1.9375 -1.265625 C 1.476562 -1.816406 1.25 -2.539062 1.25 -3.4375 L 1.25 -14.5625 C 1.25 -15.476562 1.476562 -16.207031 1.9375 -16.75 C 2.40625 -17.300781 2.984375 -17.695312 3.671875 -17.9375 C 4.367188 -18.175781 5.0625 -18.296875 5.75 -18.296875 C 6.4375 -18.296875 7.117188 -18.175781 7.796875 -17.9375 C 8.484375 -17.695312 9.054688 -17.300781 9.515625 -16.75 C 9.972656 -16.207031 10.203125 -15.476562 10.203125 -14.5625 L 10.203125 -3.4375 C 10.203125 -2.539062 9.972656 -1.816406 9.515625 -1.265625 C 9.054688 -0.722656 8.484375 -0.328125 7.796875 -0.078125 C 7.117188 0.160156 6.4375 0.28125 5.75 0.28125 Z M 5.75 0.28125 "/></g></g></g><g fill="#ffffff" fill-opacity="1"><g transform="translate(132.522974, 244.488661)"><g><path d="M 0.890625 -2.578125 L 0.890625 -5.546875 C 0.890625 -6.378906 1.140625 -7.046875 1.640625 -7.546875 C 2.140625 -8.046875 2.804688 -8.296875 3.640625 -8.296875 C 4.472656 -8.296875 5.132812 -8.046875 5.625 -7.546875 C 6.113281 -7.054688 6.359375 -6.390625 6.359375 -5.546875 L 6.359375 -3.71875 L 2.25 -3.71875 L 2.25 -2.625 C 2.25 -2.0625 2.382812 -1.65625 2.65625 -1.40625 C 2.9375 -1.15625 3.359375 -1.03125 3.921875 -1.03125 C 4.328125 -1.03125 4.6875 -1.09375 5 -1.21875 C 5.3125 -1.34375 5.5625 -1.492188 5.75 -1.671875 L 6.390625 -0.6875 C 6.078125 -0.394531 5.707031 -0.175781 5.28125 -0.03125 C 4.863281 0.101562 4.410156 0.171875 3.921875 0.171875 C 2.929688 0.171875 2.175781 -0.0703125 1.65625 -0.5625 C 1.144531 -1.050781 0.890625 -1.722656 0.890625 -2.578125 Z M 2.25 -4.796875 L 5 -4.796875 L 5 -5.515625 C 5 -6.066406 4.882812 -6.46875 4.65625 -6.71875 C 4.425781 -6.96875 4.085938 -7.09375 3.640625 -7.09375 C 2.710938 -7.09375 2.25 -6.566406 2.25 -5.515625 Z M 2.25 -4.796875 "/></g></g></g><g fill="#ffffff" fill-opacity="1"><g transform="translate(140.628712, 244.488661)"><g><path d="M 5.15625 -5.671875 C 5.15625 -6.148438 5.035156 -6.503906 4.796875 -6.734375 C 4.554688 -6.972656 4.238281 -7.09375 3.84375 -7.09375 C 3.519531 -7.09375 3.222656 -7.0625 2.953125 -7 C 2.679688 -6.9375 2.5 -6.894531 2.40625 -6.875 L 2.40625 0 L 1.046875 0 L 1.046875 -7.8125 C 1.398438 -7.90625 1.820312 -8.007812 2.3125 -8.125 C 2.800781 -8.238281 3.320312 -8.296875 3.875 -8.296875 C 4.78125 -8.296875 5.445312 -8.050781 5.875 -7.5625 C 6.300781 -7.082031 6.515625 -6.453125 6.515625 -5.671875 L 6.515625 0 L 5.15625 0 Z M 5.15625 -5.671875 "/></g></g></g><g fill="#ffffff" fill-opacity="1"><g transform="translate(149.040304, 244.488661)"><g><path d="M 3.640625 -8.296875 C 4.054688 -8.296875 4.484375 -8.269531 4.921875 -8.21875 C 5.359375 -8.164062 5.835938 -8.085938 6.359375 -7.984375 L 6.359375 0.453125 C 6.335938 1.265625 6.078125 1.90625 5.578125 2.375 C 5.078125 2.851562 4.414062 3.09375 3.59375 3.09375 C 3.101562 3.09375 2.648438 3.019531 2.234375 2.875 C 1.816406 2.738281 1.445312 2.53125 1.125 2.25 L 1.765625 1.265625 C 1.960938 1.429688 2.210938 1.578125 2.515625 1.703125 C 2.816406 1.828125 3.175781 1.890625 3.59375 1.890625 C 4.0625 1.890625 4.410156 1.753906 4.640625 1.484375 C 4.878906 1.222656 5 0.867188 5 0.421875 L 5 -0.953125 C 4.851562 -0.710938 4.632812 -0.519531 4.34375 -0.375 C 4.050781 -0.226562 3.722656 -0.15625 3.359375 -0.15625 C 2.515625 -0.15625 1.890625 -0.40625 1.484375 -0.90625 C 1.085938 -1.40625 0.890625 -2.070312 0.890625 -2.90625 L 0.890625 -5.546875 C 0.890625 -6.378906 1.117188 -7.046875 1.578125 -7.546875 C 2.046875 -8.046875 2.734375 -8.296875 3.640625 -8.296875 Z M 5.015625 -2.953125 L 5.015625 -6.921875 C 4.878906 -6.960938 4.691406 -7 4.453125 -7.03125 C 4.210938 -7.070312 3.929688 -7.09375 3.609375 -7.09375 C 2.703125 -7.09375 2.25 -6.570312 2.25 -5.53125 L 2.25 -2.9375 C 2.25 -1.882812 2.707031 -1.359375 3.625 -1.359375 C 4.070312 -1.359375 4.410156 -1.503906 4.640625 -1.796875 C 4.878906 -2.085938 5.003906 -2.472656 5.015625 -2.953125 Z M 5.015625 -2.953125 "/></g></g></g><g fill="#ffffff" fill-opacity="1"><g transform="translate(157.502867, 244.488661)"><g><path d="M 0.890625 -2.578125 L 0.890625 -5.546875 C 0.890625 -6.378906 1.140625 -7.046875 1.640625 -7.546875 C 2.140625 -8.046875 2.804688 -8.296875 3.640625 -8.296875 C 4.472656 -8.296875 5.132812 -8.046875 5.625 -7.546875 C 6.113281 -7.054688 6.359375 -6.390625 6.359375 -5.546875 L 6.359375 -3.71875 L 2.25 -3.71875 L 2.25 -2.625 C 2.25 -2.0625 2.382812 -1.65625 2.65625 -1.40625 C 2.9375 -1.15625 3.359375 -1.03125 3.921875 -1.03125 C 4.328125 -1.03125 4.6875 -1.09375 5 -1.21875 C 5.3125 -1.34375 5.5625 -1.492188 5.75 -1.671875 L 6.390625 -0.6875 C 6.078125 -0.394531 5.707031 -0.175781 5.28125 -0.03125 C 4.863281 0.101562 4.410156 0.171875 3.921875 0.171875 C 2.929688 0.171875 2.175781 -0.0703125 1.65625 -0.5625 C 1.144531 -1.050781 0.890625 -1.722656 0.890625 -2.578125 Z M 2.25 -4.796875 L 5 -4.796875 L 5 -5.515625 C 5 -6.066406 4.882812 -6.46875 4.65625 -6.71875 C 4.425781 -6.96875 4.085938 -7.09375 3.640625 -7.09375 C 2.710938 -7.09375 2.25 -6.566406 2.25 -5.515625 Z M 2.25 -4.796875 "/></g></g></g><g fill="#ffffff" fill-opacity="1"><g transform="translate(165.608606, 244.488661)"><g><path d="M 5.15625 -5.671875 C 5.15625 -6.148438 5.035156 -6.503906 4.796875 -6.734375 C 4.554688 -6.972656 4.238281 -7.09375 3.84375 -7.09375 C 3.519531 -7.09375 3.222656 -7.0625 2.953125 -7 C 2.679688 -6.9375 2.5 -6.894531 2.40625 -6.875 L 2.40625 0 L 1.046875 0 L 1.046875 -7.8125 C 1.398438 -7.90625 1.820312 -8.007812 2.3125 -8.125 C 2.800781 -8.238281 3.320312 -8.296875 3.875 -8.296875 C 4.78125 -8.296875 5.445312 -8.050781 5.875 -7.5625 C 6.300781 -7.082031 6.515625 -6.453125 6.515625 -5.671875 L 6.515625 0 L 5.15625 0 Z M 5.15625 -5.671875 "/></g></g></g><g fill="#ffffff" fill-opacity="1"><g transform="translate(174.020198, 244.488661)"><g><path d="M 1.046875 0 L 1.046875 -12.34375 L 2.375 -12.34375 L 2.375 -8.09375 C 2.601562 -8.144531 2.859375 -8.191406 3.140625 -8.234375 C 3.421875 -8.273438 3.71875 -8.296875 4.03125 -8.296875 C 4.863281 -8.296875 5.476562 -8.125 5.875 -7.78125 C 6.28125 -7.4375 6.484375 -6.875 6.484375 -6.09375 L 6.484375 0 L 5.109375 0 C 5.128906 -0.976562 5.132812 -1.96875 5.125 -2.96875 C 5.113281 -3.976562 5.109375 -4.972656 5.109375 -5.953125 C 5.109375 -6.359375 4.992188 -6.648438 4.765625 -6.828125 C 4.546875 -7.003906 4.238281 -7.09375 3.84375 -7.09375 C 3.519531 -7.09375 3.207031 -7.0625 2.90625 -7 C 2.601562 -6.945312 2.4375 -6.910156 2.40625 -6.890625 L 2.40625 0 Z M 1.046875 0 "/></g></g></g><g fill="#ffffff" fill-opacity="1"><g transform="translate(182.414794, 244.488661)"><g><path d="M 0.890625 -2.578125 L 0.890625 -5.546875 C 0.890625 -6.378906 1.140625 -7.046875 1.640625 -7.546875 C 2.140625 -8.046875 2.804688 -8.296875 3.640625 -8.296875 C 4.472656 -8.296875 5.132812 -8.046875 5.625 -7.546875 C 6.113281 -7.054688 6.359375 -6.390625 6.359375 -5.546875 L 6.359375 -3.71875 L 2.25 -3.71875 L 2.25 -2.625 C 2.25 -2.0625 2.382812 -1.65625 2.65625 -1.40625 C 2.9375 -1.15625 3.359375 -1.03125 3.921875 -1.03125 C 4.328125 -1.03125 4.6875 -1.09375 5 -1.21875 C 5.3125 -1.34375 5.5625 -1.492188 5.75 -1.671875 L 6.390625 -0.6875 C 6.078125 -0.394531 5.707031 -0.175781 5.28125 -0.03125 C 4.863281 0.101562 4.410156 0.171875 3.921875 0.171875 C 2.929688 0.171875 2.175781 -0.0703125 1.65625 -0.5625 C 1.144531 -1.050781 0.890625 -1.722656 0.890625 -2.578125 Z M 2.25 -4.796875 L 5 -4.796875 L 5 -5.515625 C 5 -6.066406 4.882812 -6.46875 4.65625 -6.71875 C 4.425781 -6.96875 4.085938 -7.09375 3.640625 -7.09375 C 2.710938 -7.09375 2.25 -6.566406 2.25 -5.515625 Z M 2.25 -4.796875 "/></g></g></g><g fill="#ffffff" fill-opacity="1"><g transform="translate(190.520529, 244.488661)"><g><path d="M 1.046875 -9.453125 L 1.046875 -11.28125 L 2.40625 -11.28125 L 2.40625 -9.453125 Z M 1.046875 0 L 1.046875 -8.078125 L 2.40625 -8.078125 L 2.40625 0 Z M 1.046875 0 "/></g></g></g><g fill="#ffffff" fill-opacity="1"><g transform="translate(195.006933, 244.488661)"><g><path d="M 4.765625 -7.03125 C 4.585938 -7.03125 4.367188 -7.019531 4.109375 -7 C 3.847656 -6.988281 3.585938 -6.972656 3.328125 -6.953125 C 3.066406 -6.929688 2.84375 -6.90625 2.65625 -6.875 C 2.476562 -6.851562 2.382812 -6.835938 2.375 -6.828125 L 2.375 0 L 1.046875 0 L 1.046875 -7.84375 C 1.285156 -7.882812 1.625 -7.9375 2.0625 -8 C 2.5 -8.0625 2.96875 -8.117188 3.46875 -8.171875 C 3.96875 -8.222656 4.414062 -8.25 4.8125 -8.25 Z M 4.765625 -7.03125 "/></g></g></g><g fill="#ffffff" fill-opacity="1"><g transform="translate(201.073606, 244.488661)"><g><path d="M 3.6875 0.171875 C 2.800781 0.171875 2.113281 -0.0703125 1.625 -0.5625 C 1.132812 -1.050781 0.890625 -1.722656 0.890625 -2.578125 L 0.890625 -5.546875 C 0.890625 -6.410156 1.132812 -7.082031 1.625 -7.5625 C 2.113281 -8.050781 2.800781 -8.296875 3.6875 -8.296875 C 4.570312 -8.296875 5.257812 -8.050781 5.75 -7.5625 C 6.25 -7.082031 6.5 -6.410156 6.5 -5.546875 L 6.5 -2.578125 C 6.5 -1.722656 6.25 -1.050781 5.75 -0.5625 C 5.25 -0.0703125 4.5625 0.171875 3.6875 0.171875 Z M 3.6875 -1.03125 C 4.1875 -1.03125 4.550781 -1.15625 4.78125 -1.40625 C 5.019531 -1.65625 5.140625 -2.0625 5.140625 -2.625 L 5.140625 -5.515625 C 5.140625 -6.078125 5.019531 -6.476562 4.78125 -6.71875 C 4.550781 -6.96875 4.1875 -7.09375 3.6875 -7.09375 C 3.195312 -7.09375 2.832031 -6.96875 2.59375 -6.71875 C 2.363281 -6.476562 2.25 -6.078125 2.25 -5.515625 L 2.25 -2.625 C 2.25 -2.0625 2.363281 -1.65625 2.59375 -1.40625 C 2.832031 -1.15625 3.195312 -1.03125 3.6875 -1.03125 Z M 3.6875 -1.03125 "/></g></g></g><g fill="#ffffff" fill-opacity="1"><g transform="translate(209.485196, 244.488661)"><g/></g></g><g fill="#ffffff" fill-opacity="1"><g transform="translate(214.362416, 244.488661)"><g><path d="M 5.46875 -1.671875 L 6.109375 -0.6875 C 5.472656 -0.113281 4.648438 0.171875 3.640625 0.171875 C 2.734375 0.171875 2.046875 -0.078125 1.578125 -0.578125 C 1.117188 -1.078125 0.890625 -1.742188 0.890625 -2.578125 L 0.890625 -5.546875 C 0.890625 -6.453125 1.128906 -7.132812 1.609375 -7.59375 C 2.097656 -8.0625 2.765625 -8.296875 3.609375 -8.296875 C 4.085938 -8.296875 4.535156 -8.242188 4.953125 -8.140625 C 5.378906 -8.046875 5.648438 -7.988281 5.765625 -7.96875 L 5.765625 -5.46875 L 4.578125 -5.46875 L 4.578125 -6.96875 C 4.398438 -7 4.242188 -7.023438 4.109375 -7.046875 C 3.972656 -7.078125 3.8125 -7.09375 3.625 -7.09375 C 3.164062 -7.09375 2.820312 -6.976562 2.59375 -6.75 C 2.363281 -6.53125 2.25 -6.117188 2.25 -5.515625 L 2.25 -2.625 C 2.25 -1.5625 2.710938 -1.03125 3.640625 -1.03125 C 4.054688 -1.03125 4.414062 -1.09375 4.71875 -1.21875 C 5.03125 -1.34375 5.28125 -1.492188 5.46875 -1.671875 Z M 5.46875 -1.671875 "/></g></g></g><g fill="#ffffff" fill-opacity="1"><g transform="translate(221.941391, 244.488661)"><g><path d="M 1.046875 -9.453125 L 1.046875 -11.28125 L 2.40625 -11.28125 L 2.40625 -9.453125 Z M 1.046875 0 L 1.046875 -8.078125 L 2.40625 -8.078125 L 2.40625 0 Z M 1.046875 0 "/></g></g></g><g fill="#ffffff" fill-opacity="1"><g transform="translate(226.427795, 244.488661)"><g><path d="M 5.359375 -8.078125 L 6.78125 -8.078125 L 4.109375 0 L 2.9375 0 L 0.28125 -8.078125 L 1.71875 -8.078125 L 3.53125 -1.84375 Z M 5.359375 -8.078125 "/></g></g></g><g fill="#ffffff" fill-opacity="1"><g transform="translate(234.516536, 244.488661)"><g><path d="M 1.046875 -9.453125 L 1.046875 -11.28125 L 2.40625 -11.28125 L 2.40625 -9.453125 Z M 1.046875 0 L 1.046875 -8.078125 L 2.40625 -8.078125 L 2.40625 0 Z M 1.046875 0 "/></g></g></g><g fill="#ffffff" fill-opacity="1"><g transform="translate(239.00294, 244.488661)"><g><path d="M 1.046875 0 L 1.046875 -12.28125 L 2.40625 -12.28125 L 2.40625 0 Z M 1.046875 0 "/></g></g></g></svg>