<svg xmlns="http://www.w3.org/2000/svg" xmlns:xlink="http://www.w3.org/1999/xlink" width="1080" zoomAndPan="magnify" viewBox="0 0 810 809.999993" height="1080" preserveAspectRatio="xMidYMid meet" version="1.0"><defs><g/><clipPath id="82e5aa4027"><path d="M 329.015625 310.183594 L 480 310.183594 L 480 412 L 329.015625 412 Z M 329.015625 310.183594 " clip-rule="nonzero"/></clipPath><clipPath id="96e565f199"><path d="M 405 348 L 438 348 L 438 376.617188 L 405 376.617188 Z M 405 348 " clip-rule="nonzero"/></clipPath><clipPath id="bd1be258d9"><path d="M 294 455 L 315 455 L 315 473.164062 L 294 473.164062 Z M 294 455 " clip-rule="nonzero"/></clipPath></defs><rect x="-81" width="972" fill="#ffffff" y="-80.999999" height="971.999992" fill-opacity="1"/><rect x="-81" width="972" fill="#ffffff" y="-80.999999" height="971.999992" fill-opacity="1"/><g clip-path="url(#82e5aa4027)"><path fill="#b85236" d="M 366.796875 332.617188 C 366.871094 332.300781 366.953125 331.988281 367.039062 331.679688 C 367.433594 330.253906 367.953125 328.914062 368.554688 327.644531 C 371.109375 322.234375 375.292969 318.175781 380.355469 315.402344 C 385.210938 312.746094 390.890625 311.285156 396.714844 310.925781 C 405.300781 310.402344 414.214844 312.296875 421.332031 316.339844 C 426.523438 319.285156 430.757812 323.375 433.257812 328.480469 C 433.515625 329.011719 433.78125 329.53125 434.046875 330.039062 C 445.78125 325.832031 455.695312 326.90625 463.230469 330.980469 C 474.820312 337.257812 480.816406 350.710938 479.132812 363.464844 C 477.308594 377.316406 466.484375 390.425781 443.867188 392.371094 L 443.867188 410.277344 C 443.867188 410.722656 443.632812 411.128906 443.25 411.355469 C 442.867188 411.578125 442.394531 411.582031 442.007812 411.363281 C 417.339844 397.394531 391.710938 397.328125 365.101562 411.378906 C 364.71875 411.582031 364.253906 411.570312 363.878906 411.34375 C 363.507812 411.117188 363.277344 410.714844 363.277344 410.277344 L 363.277344 395.71875 C 339.964844 394.765625 329.1875 378.722656 329.929688 363.101562 C 330.675781 347.316406 343.222656 331.804688 366.796875 332.617188 Z M 366.796875 332.617188 " fill-opacity="1" fill-rule="evenodd"/><path fill="#ffffff" d="M 366.667969 332.449219 C 366.734375 332.175781 366.804688 331.90625 366.878906 331.636719 C 367.277344 330.203125 367.800781 328.851562 368.402344 327.574219 C 370.972656 322.132812 375.183594 318.050781 380.277344 315.261719 C 385.152344 312.589844 390.855469 311.121094 396.707031 310.765625 C 405.320312 310.238281 414.269531 312.140625 421.414062 316.195312 C 426.636719 319.160156 430.890625 323.277344 433.410156 328.410156 C 433.644531 328.894531 433.882812 329.371094 434.128906 329.835938 C 445.855469 325.664062 455.769531 326.757812 463.308594 330.839844 C 474.960938 337.148438 480.992188 350.667969 479.300781 363.492188 C 477.46875 377.375 466.648438 390.527344 444.035156 392.527344 L 444.035156 410.28125 C 444.035156 410.785156 443.765625 411.25 443.332031 411.5 C 442.898438 411.753906 442.363281 411.757812 441.925781 411.507812 C 417.3125 397.570312 391.734375 397.507812 365.179688 411.527344 C 364.746094 411.761719 364.21875 411.742188 363.796875 411.488281 C 363.371094 411.234375 363.113281 410.777344 363.113281 410.28125 L 363.113281 395.878906 C 339.792969 394.855469 329.019531 378.757812 329.761719 363.097656 C 330.515625 347.261719 343.066406 331.699219 366.667969 332.449219 Z M 391.777344 374.136719 C 383.195312 375.570312 374.578125 378.53125 365.933594 382.996094 L 365.933594 407.96875 C 391.929688 394.914062 417.015625 394.976562 441.210938 407.898438 L 441.210938 384.839844 C 421.625 394.582031 402.964844 388.128906 391.984375 374.34375 C 391.910156 374.285156 391.839844 374.214844 391.777344 374.136719 Z M 453.042969 343.371094 C 448.792969 344.476562 445.109375 344.042969 441.847656 342.390625 C 440.347656 341.628906 438.941406 340.601562 437.628906 339.332031 C 435.117188 336.898438 432.964844 333.5625 430.980469 329.609375 C 428.675781 324.972656 424.773438 321.296875 420.039062 318.628906 C 413.332031 314.847656 404.953125 313.09375 396.878906 313.585938 C 391.445312 313.914062 386.15625 315.269531 381.609375 317.714844 C 376.988281 320.203125 373.140625 323.824219 370.734375 328.703125 C 370.167969 329.851562 369.683594 331.070312 369.269531 332.351562 C 368.875 333.574219 368.535156 334.851562 368.296875 336.203125 C 367.910156 338.269531 367.875 341.300781 368.101562 344.265625 C 368.34375 347.425781 368.863281 350.492188 369.621094 352.238281 C 369.734375 352.480469 369.632812 352.769531 369.390625 352.882812 C 369.148438 353 368.859375 352.898438 368.742188 352.660156 C 367.808594 350.898438 366.980469 347.738281 366.476562 344.453125 C 365.992188 341.324219 365.820312 338.097656 366.066406 335.867188 C 366.089844 335.664062 366.117188 335.457031 366.144531 335.253906 C 344.765625 334.773438 333.265625 348.796875 332.582031 363.230469 C 331.902344 377.53125 341.871094 392.054688 363.113281 393.054688 L 363.113281 389.726562 C 361.488281 390.074219 359.96875 390.207031 358.558594 390.066406 C 357.382812 389.949219 356.277344 389.667969 355.261719 389.207031 C 353.996094 388.628906 352.859375 387.824219 351.867188 386.769531 C 350.996094 385.84375 350.242188 384.765625 349.582031 383.496094 C 349.414062 383.238281 349.484375 382.886719 349.742188 382.714844 C 350 382.542969 350.351562 382.609375 350.527344 382.863281 C 351.1875 383.636719 351.878906 384.285156 352.597656 384.863281 C 353.710938 385.761719 354.90625 386.355469 356.195312 386.753906 C 357.019531 387.003906 357.878906 387.144531 358.792969 387.199219 C 360.046875 387.277344 361.398438 387.191406 362.855469 386.859375 L 363.113281 386.796875 L 363.113281 383.613281 L 362.28125 383.429688 L 362.277344 383.429688 C 359.390625 382.671875 356.898438 381.523438 354.832031 379.929688 C 353.355469 378.792969 352.085938 377.445312 351.042969 375.886719 C 349.835938 374.089844 348.917969 372.023438 348.285156 369.703125 C 347.738281 367.714844 347.410156 365.546875 347.273438 363.191406 C 347.238281 362.882812 347.457031 362.601562 347.765625 362.5625 C 348.078125 362.523438 348.359375 362.738281 348.402344 363.046875 C 348.738281 364.792969 349.1875 366.402344 349.714844 367.910156 C 350.585938 370.398438 351.742188 372.519531 353.171875 374.339844 C 354.160156 375.597656 355.285156 376.6875 356.5625 377.632812 C 358.382812 378.972656 360.507812 380.007812 363 380.675781 L 363.886719 380.886719 C 372.625 376.28125 381.332031 373.183594 390.011719 371.582031 C 389.691406 371.0625 389.367188 370.5 389.050781 369.894531 C 388.351562 368.554688 387.6875 367.003906 387.152344 365.257812 C 386.820312 364.160156 386.523438 362.992188 386.339844 361.746094 C 386.226562 360.972656 386.128906 360.175781 386.128906 359.347656 C 386.128906 358.066406 386.3125 356.785156 386.566406 355.402344 C 386.582031 355.136719 386.804688 354.929688 387.070312 354.9375 C 387.339844 354.945312 387.550781 355.164062 387.550781 355.429688 C 387.722656 356.746094 388.03125 357.929688 388.296875 359.109375 C 388.460938 359.851562 388.605469 360.570312 388.773438 361.269531 C 389.046875 362.382812 389.355469 363.433594 389.703125 364.417969 C 390.261719 365.976562 390.914062 367.355469 391.5625 368.5625 C 392.34375 370.007812 393.125 371.203125 393.785156 372.109375 C 393.847656 372.164062 393.90625 372.230469 393.960938 372.296875 C 404.238281 385.441406 421.972656 391.546875 440.527344 382.023438 C 440.566406 382.003906 440.601562 381.980469 440.640625 381.964844 C 440.664062 381.953125 440.683594 381.941406 440.703125 381.933594 C 441.050781 381.753906 441.402344 381.566406 441.746094 381.375 C 443 380.648438 444.71875 379.457031 446.507812 377.597656 C 447.535156 376.53125 448.585938 375.253906 449.601562 373.71875 C 450.640625 372.140625 451.632812 370.300781 452.539062 368.140625 C 453.292969 366.324219 454.027344 364.328125 454.59375 362.039062 C 454.644531 361.753906 454.917969 361.5625 455.203125 361.609375 C 455.492188 361.660156 455.683594 361.929688 455.640625 362.214844 C 455.417969 364.660156 455.046875 366.851562 454.492188 368.820312 C 453.804688 371.257812 452.871094 373.332031 451.859375 375.109375 C 450.839844 376.890625 449.710938 378.355469 448.585938 379.5625 C 446.96875 381.304688 445.355469 382.5 444.035156 383.324219 L 444.035156 385.632812 C 445.621094 385.300781 446.984375 384.796875 448.1875 384.226562 C 449.125 383.785156 449.964844 383.316406 450.699219 382.738281 C 452.035156 381.6875 453.078125 380.4375 453.785156 378.832031 C 453.882812 378.539062 454.199219 378.371094 454.496094 378.464844 C 454.792969 378.558594 454.960938 378.871094 454.875 379.167969 C 454.644531 380.421875 454.246094 381.558594 453.660156 382.621094 C 453.054688 383.714844 452.25 384.683594 451.242188 385.539062 C 450.503906 386.160156 449.648438 386.699219 448.6875 387.15625 C 447.460938 387.734375 446.050781 388.140625 444.476562 388.453125 L 444.035156 388.527344 L 444.035156 389.691406 C 464.738281 387.773438 474.820312 375.886719 476.503906 363.121094 C 478.046875 351.429688 472.59375 339.070312 461.964844 333.320312 C 455.117188 329.613281 446.140625 328.679688 435.535156 332.332031 C 436.75 334.328125 438.046875 336.070312 439.445312 337.527344 C 440.546875 338.675781 441.695312 339.652344 442.949219 340.421875 C 445.726562 342.125 448.9375 342.832031 452.804688 342.230469 C 453.121094 342.171875 453.425781 342.371094 453.488281 342.683594 C 453.554688 343 453.351562 343.304688 453.042969 343.371094 Z M 453.042969 343.371094 " fill-opacity="1" fill-rule="evenodd"/></g><g clip-path="url(#96e565f199)"><path fill="#ffffff" d="M 420.734375 355.675781 C 423.398438 349.054688 430.179688 345.503906 435.222656 350.476562 C 444.59375 359.695312 421.109375 376.492188 421.109375 376.492188 C 409.167969 366.714844 400.519531 358.332031 407.539062 350.851562 C 411.476562 346.652344 417.976562 349.355469 420.734375 355.675781 Z M 420.734375 355.675781 " fill-opacity="1" fill-rule="nonzero"/></g><g fill="#b85236" fill-opacity="1"><g transform="translate(289.404757, 498.16846)"><g><path d="M 24.328125 0.90625 C 20.285156 0.90625 16.21875 0.101562 12.125 -1.5 C 8.03125 -3.101562 4.347656 -5.425781 1.078125 -8.46875 L 2.734375 -21.515625 L 6.140625 -21.515625 C 7.640625 -17.796875 9.425781 -14.566406 11.5 -11.828125 C 13.570312 -9.085938 15.742188 -6.957031 18.015625 -5.4375 C 20.285156 -3.914062 22.472656 -3.15625 24.578125 -3.15625 C 27.347656 -3.15625 29.671875 -4.609375 31.546875 -7.515625 C 33.429688 -10.421875 34.375 -15.140625 34.375 -21.671875 L 34.375 -75.734375 L 46.421875 -75.734375 L 46.421875 -23.171875 C 46.421875 -17.578125 45.394531 -12.992188 43.34375 -9.421875 C 41.300781 -5.847656 38.601562 -3.234375 35.25 -1.578125 C 31.90625 0.078125 28.265625 0.90625 24.328125 0.90625 Z M 24.328125 0.90625 "/></g></g></g><g fill="#b85236" fill-opacity="1"><g transform="translate(340.972243, 498.16846)"><g><path d="M 34.96875 -75.734375 L 57.390625 0 L 48.078125 0 L 48.078125 -3.328125 C 48.078125 -6.035156 47.828125 -8.578125 47.328125 -10.953125 C 46.835938 -13.335938 46.285156 -15.582031 45.671875 -17.6875 L 42.265625 -29.484375 L 22.25 -29.484375 L 13.703125 0 L 2.328125 0 L 24.75 -75.734375 Z M 32.390625 -64.1875 L 23.75 -34.625 L 40.859375 -34.625 Z M 32.390625 -64.1875 "/></g></g></g><g fill="#b85236" fill-opacity="1"><g transform="translate(400.760632, 498.16846)"><g><path d="M 15.703125 -1.5 L 15.703125 0.078125 L 4.484375 0 L 4.484375 -1.5 C 5.753906 -4.425781 6.625 -7.976562 7.09375 -12.15625 C 7.570312 -16.34375 7.8125 -21.148438 7.8125 -26.578125 L 7.8125 -75.734375 L 19.265625 -75.734375 L 49.15625 -10.96875 L 49.15625 -49.078125 C 49.15625 -54.503906 48.921875 -59.304688 48.453125 -63.484375 C 47.984375 -67.671875 47.113281 -71.226562 45.84375 -74.15625 L 45.84375 -75.65625 L 56.5625 -75.734375 L 56.5625 -74.15625 C 55.394531 -71.226562 54.726562 -67.671875 54.5625 -63.484375 C 54.394531 -59.304688 54.3125 -54.503906 54.3125 -49.078125 L 54.3125 0 L 42.265625 0 L 12.875 -62.859375 L 12.875 -26.578125 C 12.875 -21.148438 13.039062 -16.34375 13.375 -12.15625 C 13.707031 -7.976562 14.484375 -4.425781 15.703125 -1.5 Z M 15.703125 -1.5 "/></g></g></g><g fill="#b85236" fill-opacity="1"><g transform="translate(460.798133, 498.16846)"><g><path d="M 34.96875 -75.734375 L 57.390625 0 L 48.078125 0 L 48.078125 -3.328125 C 48.078125 -6.035156 47.828125 -8.578125 47.328125 -10.953125 C 46.835938 -13.335938 46.285156 -15.582031 45.671875 -17.6875 L 42.265625 -29.484375 L 22.25 -29.484375 L 13.703125 0 L 2.328125 0 L 24.75 -75.734375 Z M 32.390625 -64.1875 L 23.75 -34.625 L 40.859375 -34.625 Z M 32.390625 -64.1875 "/></g></g></g><g fill="#b85236" fill-opacity="1"><g transform="translate(326.664141, 529.2968)"><g><path d="M 3.3125 -11.1875 L 3.3125 -6.34375 L 9.671875 -6.34375 L 9.671875 -5.21875 L 3.3125 -5.21875 L 3.3125 0 L 2 0 L 2 -12.3125 L 10.453125 -12.3125 L 10.453125 -11.1875 Z M 3.3125 -11.1875 "/></g></g></g><g fill="#b85236" fill-opacity="1"><g transform="translate(340.477686, 529.2968)"><g><path d="M 10.71875 -1.125 L 10.71875 0 L 2 0 L 2 -12.3125 L 10.453125 -12.3125 L 10.453125 -11.1875 L 3.3125 -11.1875 L 3.3125 -6.8125 L 9.671875 -6.8125 L 9.671875 -5.703125 L 3.3125 -5.703125 L 3.3125 -1.125 Z M 10.71875 -1.125 "/></g></g></g><g fill="#b85236" fill-opacity="1"><g transform="translate(354.924698, 529.2968)"><g><path d="M 2 -12.3125 L 3.3125 -12.3125 L 3.3125 -1.125 L 10.203125 -1.125 L 10.203125 0 L 2 0 Z M 2 -12.3125 "/></g></g></g><g fill="#b85236" fill-opacity="1"><g transform="translate(367.963996, 529.2968)"><g><path d="M 2 -12.3125 L 3.3125 -12.3125 L 3.3125 0 L 2 0 Z M 2 -12.3125 "/></g></g></g><g fill="#b85236" fill-opacity="1"><g transform="translate(375.953131, 529.2968)"><g><path d="M 7.359375 0.109375 C 6.140625 0.109375 5.039062 -0.160156 4.0625 -0.703125 C 3.082031 -1.242188 2.3125 -1.988281 1.75 -2.9375 C 1.195312 -3.894531 0.921875 -4.96875 0.921875 -6.15625 C 0.921875 -7.34375 1.195312 -8.410156 1.75 -9.359375 C 2.3125 -10.316406 3.082031 -11.066406 4.0625 -11.609375 C 5.050781 -12.148438 6.15625 -12.421875 7.375 -12.421875 C 8.289062 -12.421875 9.132812 -12.265625 9.90625 -11.953125 C 10.675781 -11.648438 11.332031 -11.207031 11.875 -10.625 L 11.046875 -9.796875 C 10.085938 -10.773438 8.875 -11.265625 7.40625 -11.265625 C 6.4375 -11.265625 5.550781 -11.039062 4.75 -10.59375 C 3.945312 -10.144531 3.320312 -9.53125 2.875 -8.75 C 2.425781 -7.976562 2.203125 -7.113281 2.203125 -6.15625 C 2.203125 -5.195312 2.425781 -4.328125 2.875 -3.546875 C 3.320312 -2.773438 3.945312 -2.164062 4.75 -1.71875 C 5.550781 -1.28125 6.4375 -1.0625 7.40625 -1.0625 C 8.882812 -1.0625 10.097656 -1.550781 11.046875 -2.53125 L 11.875 -1.703125 C 11.332031 -1.117188 10.671875 -0.671875 9.890625 -0.359375 C 9.109375 -0.046875 8.265625 0.109375 7.359375 0.109375 Z M 7.359375 0.109375 "/></g></g></g><g fill="#b85236" fill-opacity="1"><g transform="translate(391.279961, 529.2968)"><g><path d="M 2 -12.3125 L 3.3125 -12.3125 L 3.3125 0 L 2 0 Z M 2 -12.3125 "/></g></g></g><g fill="#b85236" fill-opacity="1"><g transform="translate(399.269099, 529.2968)"><g><path d="M 2 -12.3125 L 7.015625 -12.3125 C 8.316406 -12.3125 9.46875 -12.050781 10.46875 -11.53125 C 11.46875 -11.007812 12.242188 -10.28125 12.796875 -9.34375 C 13.347656 -8.414062 13.625 -7.351562 13.625 -6.15625 C 13.625 -4.957031 13.347656 -3.890625 12.796875 -2.953125 C 12.242188 -2.023438 11.46875 -1.300781 10.46875 -0.78125 C 9.46875 -0.257812 8.316406 0 7.015625 0 L 2 0 Z M 6.953125 -1.125 C 8.023438 -1.125 8.96875 -1.335938 9.78125 -1.765625 C 10.59375 -2.191406 11.21875 -2.785156 11.65625 -3.546875 C 12.101562 -4.304688 12.328125 -5.175781 12.328125 -6.15625 C 12.328125 -7.144531 12.101562 -8.015625 11.65625 -8.765625 C 11.21875 -9.523438 10.59375 -10.117188 9.78125 -10.546875 C 8.96875 -10.972656 8.023438 -11.1875 6.953125 -11.1875 L 3.3125 -11.1875 L 3.3125 -1.125 Z M 6.953125 -1.125 "/></g></g></g><g fill="#b85236" fill-opacity="1"><g transform="translate(416.478742, 529.2968)"><g><path d="M 9.734375 -3.296875 L 2.875 -3.296875 L 1.390625 0 L 0.03125 0 L 5.671875 -12.3125 L 6.953125 -12.3125 L 12.578125 0 L 11.203125 0 Z M 9.25 -4.34375 L 6.296875 -10.96875 L 3.34375 -4.34375 Z M 9.25 -4.34375 "/></g></g></g><g fill="#b85236" fill-opacity="1"><g transform="translate(431.770381, 529.2968)"><g><path d="M 2 -12.3125 L 7.015625 -12.3125 C 8.316406 -12.3125 9.46875 -12.050781 10.46875 -11.53125 C 11.46875 -11.007812 12.242188 -10.28125 12.796875 -9.34375 C 13.347656 -8.414062 13.625 -7.351562 13.625 -6.15625 C 13.625 -4.957031 13.347656 -3.890625 12.796875 -2.953125 C 12.242188 -2.023438 11.46875 -1.300781 10.46875 -0.78125 C 9.46875 -0.257812 8.316406 0 7.015625 0 L 2 0 Z M 6.953125 -1.125 C 8.023438 -1.125 8.96875 -1.335938 9.78125 -1.765625 C 10.59375 -2.191406 11.21875 -2.785156 11.65625 -3.546875 C 12.101562 -4.304688 12.328125 -5.175781 12.328125 -6.15625 C 12.328125 -7.144531 12.101562 -8.015625 11.65625 -8.765625 C 11.21875 -9.523438 10.59375 -10.117188 9.78125 -10.546875 C 8.96875 -10.972656 8.023438 -11.1875 6.953125 -11.1875 L 3.3125 -11.1875 L 3.3125 -1.125 Z M 6.953125 -1.125 "/></g></g></g><g fill="#b85236" fill-opacity="1"><g transform="translate(448.980031, 529.2968)"><g><path d="M 10.71875 -1.125 L 10.71875 0 L 2 0 L 2 -12.3125 L 10.453125 -12.3125 L 10.453125 -11.1875 L 3.3125 -11.1875 L 3.3125 -6.8125 L 9.671875 -6.8125 L 9.671875 -5.703125 L 3.3125 -5.703125 L 3.3125 -1.125 Z M 10.71875 -1.125 "/></g></g></g><g fill="#b85236" fill-opacity="1"><g transform="translate(463.427046, 529.2968)"><g/></g></g><g fill="#b85236" fill-opacity="1"><g transform="translate(470.712327, 529.2968)"><g><path d="M 9.734375 -3.296875 L 2.875 -3.296875 L 1.390625 0 L 0.03125 0 L 5.671875 -12.3125 L 6.953125 -12.3125 L 12.578125 0 L 11.203125 0 Z M 9.25 -4.34375 L 6.296875 -10.96875 L 3.34375 -4.34375 Z M 9.25 -4.34375 "/></g></g></g><g fill="#b85236" fill-opacity="1"><g transform="translate(316.12401, 553.809411)"><g><path d="M 7.359375 0.109375 C 6.140625 0.109375 5.039062 -0.160156 4.0625 -0.703125 C 3.082031 -1.242188 2.3125 -1.988281 1.75 -2.9375 C 1.195312 -3.894531 0.921875 -4.96875 0.921875 -6.15625 C 0.921875 -7.34375 1.195312 -8.410156 1.75 -9.359375 C 2.3125 -10.316406 3.082031 -11.066406 4.0625 -11.609375 C 5.050781 -12.148438 6.15625 -12.421875 7.375 -12.421875 C 8.289062 -12.421875 9.132812 -12.265625 9.90625 -11.953125 C 10.675781 -11.648438 11.332031 -11.207031 11.875 -10.625 L 11.046875 -9.796875 C 10.085938 -10.773438 8.875 -11.265625 7.40625 -11.265625 C 6.4375 -11.265625 5.550781 -11.039062 4.75 -10.59375 C 3.945312 -10.144531 3.320312 -9.53125 2.875 -8.75 C 2.425781 -7.976562 2.203125 -7.113281 2.203125 -6.15625 C 2.203125 -5.195312 2.425781 -4.328125 2.875 -3.546875 C 3.320312 -2.773438 3.945312 -2.164062 4.75 -1.71875 C 5.550781 -1.28125 6.4375 -1.0625 7.40625 -1.0625 C 8.882812 -1.0625 10.097656 -1.550781 11.046875 -2.53125 L 11.875 -1.703125 C 11.332031 -1.117188 10.671875 -0.671875 9.890625 -0.359375 C 9.109375 -0.046875 8.265625 0.109375 7.359375 0.109375 Z M 7.359375 0.109375 "/></g></g></g><g fill="#b85236" fill-opacity="1"><g transform="translate(331.450841, 553.809411)"><g><path d="M 9.734375 -3.296875 L 2.875 -3.296875 L 1.390625 0 L 0.03125 0 L 5.671875 -12.3125 L 6.953125 -12.3125 L 12.578125 0 L 11.203125 0 Z M 9.25 -4.34375 L 6.296875 -10.96875 L 3.34375 -4.34375 Z M 9.25 -4.34375 "/></g></g></g><g fill="#b85236" fill-opacity="1"><g transform="translate(346.742476, 553.809411)"><g><path d="M 2 -12.3125 L 7.015625 -12.3125 C 8.316406 -12.3125 9.46875 -12.050781 10.46875 -11.53125 C 11.46875 -11.007812 12.242188 -10.28125 12.796875 -9.34375 C 13.347656 -8.414062 13.625 -7.351562 13.625 -6.15625 C 13.625 -4.957031 13.347656 -3.890625 12.796875 -2.953125 C 12.242188 -2.023438 11.46875 -1.300781 10.46875 -0.78125 C 9.46875 -0.257812 8.316406 0 7.015625 0 L 2 0 Z M 6.953125 -1.125 C 8.023438 -1.125 8.96875 -1.335938 9.78125 -1.765625 C 10.59375 -2.191406 11.21875 -2.785156 11.65625 -3.546875 C 12.101562 -4.304688 12.328125 -5.175781 12.328125 -6.15625 C 12.328125 -7.144531 12.101562 -8.015625 11.65625 -8.765625 C 11.21875 -9.523438 10.59375 -10.117188 9.78125 -10.546875 C 8.96875 -10.972656 8.023438 -11.1875 6.953125 -11.1875 L 3.3125 -11.1875 L 3.3125 -1.125 Z M 6.953125 -1.125 "/></g></g></g><g fill="#b85236" fill-opacity="1"><g transform="translate(363.952122, 553.809411)"><g><path d="M 9.734375 -3.296875 L 2.875 -3.296875 L 1.390625 0 L 0.03125 0 L 5.671875 -12.3125 L 6.953125 -12.3125 L 12.578125 0 L 11.203125 0 Z M 9.25 -4.34375 L 6.296875 -10.96875 L 3.34375 -4.34375 Z M 9.25 -4.34375 "/></g></g></g><g fill="#b85236" fill-opacity="1"><g transform="translate(379.243757, 553.809411)"><g/></g></g><g fill="#b85236" fill-opacity="1"><g transform="translate(386.529038, 553.809411)"><g><path d="M 14.796875 -12.3125 L 14.796875 0 L 13.546875 0 L 13.546875 -9.859375 L 8.703125 -1.5625 L 8.09375 -1.5625 L 3.25 -9.796875 L 3.25 0 L 2 0 L 2 -12.3125 L 3.078125 -12.3125 L 8.421875 -3.1875 L 13.71875 -12.3125 Z M 14.796875 -12.3125 "/></g></g></g><g fill="#b85236" fill-opacity="1"><g transform="translate(406.008613, 553.809411)"><g><path d="M 7.390625 0.109375 C 6.171875 0.109375 5.066406 -0.160156 4.078125 -0.703125 C 3.085938 -1.253906 2.3125 -2.003906 1.75 -2.953125 C 1.195312 -3.898438 0.921875 -4.96875 0.921875 -6.15625 C 0.921875 -7.34375 1.195312 -8.410156 1.75 -9.359375 C 2.3125 -10.304688 3.085938 -11.050781 4.078125 -11.59375 C 5.066406 -12.144531 6.171875 -12.421875 7.390625 -12.421875 C 8.609375 -12.421875 9.707031 -12.148438 10.6875 -11.609375 C 11.664062 -11.066406 12.4375 -10.316406 13 -9.359375 C 13.5625 -8.410156 13.84375 -7.34375 13.84375 -6.15625 C 13.84375 -4.96875 13.5625 -3.894531 13 -2.9375 C 12.4375 -1.988281 11.664062 -1.242188 10.6875 -0.703125 C 9.707031 -0.160156 8.609375 0.109375 7.390625 0.109375 Z M 7.390625 -1.0625 C 8.359375 -1.0625 9.234375 -1.28125 10.015625 -1.71875 C 10.804688 -2.15625 11.425781 -2.765625 11.875 -3.546875 C 12.320312 -4.328125 12.546875 -5.195312 12.546875 -6.15625 C 12.546875 -7.113281 12.320312 -7.984375 11.875 -8.765625 C 11.425781 -9.546875 10.804688 -10.15625 10.015625 -10.59375 C 9.234375 -11.039062 8.359375 -11.265625 7.390625 -11.265625 C 6.410156 -11.265625 5.523438 -11.039062 4.734375 -10.59375 C 3.941406 -10.15625 3.320312 -9.546875 2.875 -8.765625 C 2.425781 -7.984375 2.203125 -7.113281 2.203125 -6.15625 C 2.203125 -5.195312 2.425781 -4.328125 2.875 -3.546875 C 3.320312 -2.765625 3.941406 -2.15625 4.734375 -1.71875 C 5.523438 -1.28125 6.410156 -1.0625 7.390625 -1.0625 Z M 7.390625 -1.0625 "/></g></g></g><g fill="#b85236" fill-opacity="1"><g transform="translate(423.447013, 553.809411)"><g><path d="M 10.421875 0 L 7.59375 -3.953125 C 7.28125 -3.921875 6.953125 -3.90625 6.609375 -3.90625 L 3.3125 -3.90625 L 3.3125 0 L 2 0 L 2 -12.3125 L 6.609375 -12.3125 C 8.179688 -12.3125 9.410156 -11.9375 10.296875 -11.1875 C 11.191406 -10.4375 11.640625 -9.40625 11.640625 -8.09375 C 11.640625 -7.132812 11.394531 -6.320312 10.90625 -5.65625 C 10.425781 -4.988281 9.734375 -4.507812 8.828125 -4.21875 L 11.84375 0 Z M 6.578125 -5.015625 C 7.796875 -5.015625 8.726562 -5.285156 9.375 -5.828125 C 10.019531 -6.367188 10.34375 -7.125 10.34375 -8.09375 C 10.34375 -9.09375 10.019531 -9.859375 9.375 -10.390625 C 8.726562 -10.921875 7.796875 -11.1875 6.578125 -11.1875 L 3.3125 -11.1875 L 3.3125 -5.015625 Z M 6.578125 -5.015625 "/></g></g></g><g fill="#b85236" fill-opacity="1"><g transform="translate(438.84423, 553.809411)"><g><path d="M 2 -12.3125 L 7.015625 -12.3125 C 8.316406 -12.3125 9.46875 -12.050781 10.46875 -11.53125 C 11.46875 -11.007812 12.242188 -10.28125 12.796875 -9.34375 C 13.347656 -8.414062 13.625 -7.351562 13.625 -6.15625 C 13.625 -4.957031 13.347656 -3.890625 12.796875 -2.953125 C 12.242188 -2.023438 11.46875 -1.300781 10.46875 -0.78125 C 9.46875 -0.257812 8.316406 0 7.015625 0 L 2 0 Z M 6.953125 -1.125 C 8.023438 -1.125 8.96875 -1.335938 9.78125 -1.765625 C 10.59375 -2.191406 11.21875 -2.785156 11.65625 -3.546875 C 12.101562 -4.304688 12.328125 -5.175781 12.328125 -6.15625 C 12.328125 -7.144531 12.101562 -8.015625 11.65625 -8.765625 C 11.21875 -9.523438 10.59375 -10.117188 9.78125 -10.546875 C 8.96875 -10.972656 8.023438 -11.1875 6.953125 -11.1875 L 3.3125 -11.1875 L 3.3125 -1.125 Z M 6.953125 -1.125 "/></g></g></g><g fill="#b85236" fill-opacity="1"><g transform="translate(456.05388, 553.809411)"><g><path d="M 2 -12.3125 L 3.3125 -12.3125 L 3.3125 0 L 2 0 Z M 2 -12.3125 "/></g></g></g><g fill="#b85236" fill-opacity="1"><g transform="translate(464.043018, 553.809411)"><g><path d="M 2 -12.3125 L 7.015625 -12.3125 C 8.316406 -12.3125 9.46875 -12.050781 10.46875 -11.53125 C 11.46875 -11.007812 12.242188 -10.28125 12.796875 -9.34375 C 13.347656 -8.414062 13.625 -7.351562 13.625 -6.15625 C 13.625 -4.957031 13.347656 -3.890625 12.796875 -2.953125 C 12.242188 -2.023438 11.46875 -1.300781 10.46875 -0.78125 C 9.46875 -0.257812 8.316406 0 7.015625 0 L 2 0 Z M 6.953125 -1.125 C 8.023438 -1.125 8.96875 -1.335938 9.78125 -1.765625 C 10.59375 -2.191406 11.21875 -2.785156 11.65625 -3.546875 C 12.101562 -4.304688 12.328125 -5.175781 12.328125 -6.15625 C 12.328125 -7.144531 12.101562 -8.015625 11.65625 -8.765625 C 11.21875 -9.523438 10.59375 -10.117188 9.78125 -10.546875 C 8.96875 -10.972656 8.023438 -11.1875 6.953125 -11.1875 L 3.3125 -11.1875 L 3.3125 -1.125 Z M 6.953125 -1.125 "/></g></g></g><g fill="#b85236" fill-opacity="1"><g transform="translate(481.252668, 553.809411)"><g><path d="M 9.734375 -3.296875 L 2.875 -3.296875 L 1.390625 0 L 0.03125 0 L 5.671875 -12.3125 L 6.953125 -12.3125 L 12.578125 0 L 11.203125 0 Z M 9.25 -4.34375 L 6.296875 -10.96875 L 3.34375 -4.34375 Z M 9.25 -4.34375 "/></g></g></g><path stroke-linecap="butt" transform="matrix(0.471396, 0, 0, 0.471396, 275.748446, 533.068001)" fill="none" stroke-linejoin="miter" d="M 0.00329738 2.001962 L 62.856787 2.001962 " stroke="#b85236" stroke-width="4" stroke-opacity="1" stroke-miterlimit="4"/><path stroke-linecap="butt" transform="matrix(0.471396, 0, 0, 0.471396, 501.630794, 534.010769)" fill="none" stroke-linejoin="miter" d="M -0.00400515 1.999073 L 62.857771 1.999073 " stroke="#b85236" stroke-width="4" stroke-opacity="1" stroke-miterlimit="4"/><g clip-path="url(#bd1be258d9)"><path fill="#b85236" d="M 304.242188 460.15625 C 305.898438 456.042969 310.113281 453.835938 313.246094 456.925781 C 319.070312 462.652344 304.476562 473.089844 304.476562 473.089844 C 297.058594 467.015625 291.683594 461.808594 296.046875 457.160156 C 298.492188 454.550781 302.53125 456.230469 304.242188 460.15625 Z M 304.242188 460.15625 " fill-opacity="1" fill-rule="nonzero"/></g></svg>